# xmcd
#
# Track frame offsets:
#	150
#	16778
#	32686
#	47641
#	63019
#	78708
#	93301
#	108725
#	125542
#	138261
#	153771
#	168152
#
# Disc length: 2497 seconds
#
# Revision: 1
# Processed by: cddbd v1.5.2PL0 Copyright (c) Steve Scherf et al.
# Submitted via: audiograbber 1.83.01
#
DISCID=8c09bf0c
DTITLE=Jerrod Niemann - Free the Music
DYEAR=2012
DGENRE=Country
TTITLE0=Free the Music
TTITLE1=Whiskey Kinda Way
TTITLE2=Get On Up
TTITLE3=I'll Have to Kill the Pain
TTITLE4=Only God Could Love You More
TTITLE5=Shinin' On Me
TTITLE6=Honky Tonk Fever
TTITLE7=Guessing Games
TTITLE8=It Won't Matter Anymore
TTITLE9=I'm All About You (feat. Colbie Caillat)
TTITLE10=Real Women Drink Beer
TTITLE11=Fraction Of A Man
EXTD=
EXTT0=
EXTT1=
EXTT2=
EXTT3=
EXTT4=
EXTT5=
EXTT6=
EXTT7=
EXTT8=
EXTT9=
EXTT10=
EXTT11=
PLAYORDER=
